HIERARCHY
ROOT hip
{
	OFFSET 0.000000 0.000000 0.000000 
	CHANNELS 6 Xposition Yposition Zposition Xrotation Zrotation Yrotation
	JOINT abdomen
	{
		OFFSET 0.000000 3.402643 0.000000 
		CHANNELS 3 Xrotation Zrotation Yrotation
		JOINT chest
		{
			OFFSET 0.000000 8.438565 -0.680529 
			CHANNELS 3 Xrotation Zrotation Yrotation
			JOINT neck
			{
				OFFSET 0.000000 10.207942 -0.272212 
				CHANNELS 3 Xrotation Zrotation Yrotation
				JOINT head
				{
					OFFSET 0.000000 3.130431 0.000000 
					CHANNELS 3 Xrotation Zrotation Yrotation
					End Site
					{
						OFFSET 0.000000 3.130435 0.000000 
					}
				}
			}
			JOINT lCollar
			{
				OFFSET 3.470700 6.669187 -0.816635 
				CHANNELS 3 Yrotation Zrotation Xrotation
				JOINT lShldr
				{
					OFFSET 3.198488 0.000000 0.000000 
					CHANNELS 3 Zrotation Yrotation Xrotation
					JOINT lForeArm
					{
						OFFSET 10.139888 0.000000 0.000000 
						CHANNELS 3 Yrotation Zrotation Xrotation
						JOINT lHand
						{
							OFFSET 8.370511 0.000000 0.000000 
							CHANNELS 3 Zrotation Yrotation Xrotation
							End Site
							{
								OFFSET 4.083176 0.000000 0.000000 
							}
						}
					}
				}
			}
			JOINT rCollar
			{
				OFFSET -3.470700 6.669187 -0.816635 
				CHANNELS 3 Yrotation Zrotation Xrotation
				JOINT rShldr
				{
					OFFSET -3.198488 0.000000 0.000000 
					CHANNELS 3 Zrotation Yrotation Xrotation
					JOINT rForeArm
					{
						OFFSET -10.139888 0.000000 0.000000 
						CHANNELS 3 Yrotation Zrotation Xrotation
						JOINT rHand
						{
							OFFSET -8.370511 0.000000 0.000000 
							CHANNELS 3 Zrotation Yrotation Xrotation
							End Site
							{
								OFFSET -4.083176 0.000000 0.000000 
							}
						}
					}
				}
			}
		}
	}
	JOINT lThigh
	{
		OFFSET 5.308129 -1.633274 1.361059 
		CHANNELS 3 Xrotation Zrotation Yrotation
		JOINT lShin
		{
			OFFSET -2.041588 -20.007561 0.000000 
			CHANNELS 3 Xrotation Zrotation Yrotation
			JOINT lFoot
			{
				OFFSET 0.000000 -19.190928 -1.224953 
				CHANNELS 3 Xrotation Yrotation Zrotation
				End Site
				{
					OFFSET 0.000000 -2.449906 4.627600 
				}
			}
		}
	}
	JOINT rThigh
	{
		OFFSET -5.308129 -1.633274 1.361059 
		CHANNELS 3 Xrotation Zrotation Yrotation
		JOINT rShin
		{
			OFFSET 2.041588 -20.007561 0.000000 
			CHANNELS 3 Xrotation Zrotation Yrotation
			JOINT rFoot
			{
				OFFSET 0.000000 -19.190928 -1.224953 
				CHANNELS 3 Xrotation Yrotation Zrotation
				End Site
				{
					OFFSET 0.000000 -2.449906 4.627600 
				}
			}
		}
	}
}
MOTION
Frames: 16
Frame Time: 0.033333
0.717868 43.539215 -2.624177 -11.223100 -3.875480 -3.684790 0.000000 0.000000 0.000000 22.635500 -3.266930 -7.427060 33.308701 9.412980 -2.245560 -12.262300 6.299040 -2.963330 0.344252 15.312236 11.176689 -63.460800 -18.607800 33.679199 -70.999802 -9.028310 37.368401 -25.589199 -14.539800 -12.973200 -16.407337 3.953817 12.413064 59.497501 -11.028400 8.938220 80.746201 -12.497200 69.375000 3.987510 -18.521400 -34.278500 -7.341385 5.172709 16.234571 20.971331 0.229146 -15.843520 -6.067389 3.234641 1.512445 -23.923615 -9.149139 -14.319384 51.507671 -6.492421 9.775821 15.166561 -5.387738 0.059735 
0.855327 43.516621 -2.678044 -9.633420 -2.373990 -4.651870 0.000000 0.000000 0.000000 22.635500 -2.037810 -7.290420 29.255899 8.175680 -4.542190 -14.514900 6.947500 -5.711220 1.453864 14.702501 8.868909 -63.346199 -16.520700 34.236500 -70.962303 -9.250190 36.105701 -24.137100 -13.694800 -13.226500 -15.937876 2.826648 10.728688 57.291100 -10.121700 9.209270 81.170898 -12.202400 67.375000 4.914520 -17.893900 -34.878399 -8.254220 3.284744 14.932281 19.314304 -0.667060 -14.216387 -5.541392 3.738736 1.990846 -25.203728 -9.218184 -12.698315 50.129402 -7.351370 8.507763 14.074213 -5.260978 0.450097 
0.975923 43.414410 -2.762252 -8.510820 -0.723261 -5.931390 0.000000 0.000000 0.000000 22.635500 -1.107320 -7.119790 24.701000 6.606740 -6.547640 -15.884600 7.443920 -7.855690 1.868106 13.508704 6.681007 -63.160900 -14.239200 33.894402 -69.970001 -9.624430 34.980499 -22.236900 -13.445800 -12.835300 -14.997587 1.773440 8.883000 55.101101 -8.591180 9.931200 80.538399 -12.231900 66.828796 6.451780 -17.458700 -35.949299 -9.224060 1.384706 13.960268 18.400164 -1.352261 -12.784914 -4.737556 4.411773 2.299890 -26.038523 -9.830439 -10.995588 48.765789 -8.936290 10.195866 11.722101 -4.962321 1.986674 
1.062656 43.275543 -2.874275 -7.773680 0.759266 -7.460410 0.000000 0.000000 0.000000 22.635500 -0.313941 -6.836520 19.886999 4.921290 -7.983670 -16.623800 7.754940 -9.446340 1.905452 11.790535 4.559926 -62.954201 -12.339000 33.140099 -67.911301 -10.140800 33.970402 -20.229900 -13.937000 -11.862300 -13.556258 0.863917 7.024679 53.166901 -6.609040 11.270000 78.640900 -12.782100 67.039101 7.783200 -16.785400 -36.869301 -10.256854 -0.148679 13.380548 18.169018 -1.866249 -11.608739 -3.730414 5.065707 2.503952 -26.335026 -10.808883 -9.519775 46.927715 -10.592651 14.477940 8.604996 -4.597488 2.897074 
1.072659 43.198326 -3.000308 -7.197410 1.848500 -8.996250 0.000000 0.000000 0.000000 22.635500 0.367975 -6.377630 15.178700 3.477490 -8.741400 -17.185600 7.900490 -10.617100 1.813262 9.741307 2.651549 -62.607700 -11.200000 32.383400 -65.225098 -10.704200 33.146702 -18.577801 -14.946800 -10.598200 -11.816443 0.143380 5.352262 51.885201 -4.480390 13.224200 75.472298 -13.917500 66.932999 8.302420 -15.545300 -37.118900 -11.401676 -1.143526 13.007867 18.409616 -2.188541 -10.567327 -2.832233 5.565877 2.556098 -26.021667 -12.028913 -8.475346 44.159962 -11.328011 19.469997 5.047369 -4.208276 3.061497 
0.938249 43.143658 -3.123093 -6.498890 2.654610 -10.204600 0.000000 0.000000 0.000000 22.635500 0.749140 -5.832340 10.924900 2.571530 -8.955210 -17.910999 8.140150 -11.530000 1.646015 7.780031 1.124182 -62.056900 -10.815000 31.913200 -62.627201 -11.188300 32.513199 -17.496201 -15.912100 -9.476730 -10.039392 -0.461573 4.097976 51.831299 -2.493090 15.591800 71.195099 -15.512400 65.913902 8.079510 -13.964500 -36.682201 -12.766074 -1.583524 12.884398 18.817566 -2.276687 -9.843889 -2.138941 5.869148 2.396210 -25.133755 -13.289072 -8.217070 40.493435 -10.650741 22.804907 1.560955 -3.867825 3.061804 
0.594509 43.091240 -3.235836 -5.477650 3.337120 -10.856200 0.000000 0.000000 0.000000 22.635500 0.643710 -5.307810 7.471020 2.246190 -8.923800 -18.881201 8.767750 -12.402900 1.631337 6.423199 0.158209 -61.432899 -11.070900 31.948200 -60.600601 -11.616900 31.830200 -16.748199 -16.286501 -8.856360 -8.400029 -1.111002 3.517623 53.375900 -0.893491 18.219200 66.121498 -17.323400 64.092102 7.686650 -12.511000 -36.004200 -14.374850 -1.581554 13.058600 19.251568 -2.122791 -9.642059 -1.736742 5.928470 1.880465 -23.866545 -14.189073 -8.911546 36.414749 -8.836991 23.235493 -1.550022 -3.560082 2.994214 
0.017766 43.065540 -3.344187 -4.140240 3.888020 -10.819400 0.000000 0.000000 0.000000 22.635500 0.100372 -4.870780 4.854620 2.358810 -8.867110 -20.053400 9.811510 -13.313400 1.855618 5.924648 -0.339081 -61.063000 -11.836300 32.565701 -59.228901 -12.137200 30.882900 -15.713500 -15.895600 -8.682140 -7.045067 -1.938390 3.539929 56.250801 0.218996 21.166300 60.605900 -19.131599 61.848801 7.706750 -11.626000 -35.537701 -16.205545 -1.192449 13.445516 19.555008 -1.732694 -10.008996 -1.258439 5.694424 1.414625 -22.525274 -14.371372 -10.447209 32.449921 -6.581290 21.243378 -4.093395 -3.159011 2.302944 
-0.756496 43.142967 -3.454738 -2.661150 4.080480 -10.092000 0.000000 0.000000 0.000000 22.635500 -0.556115 -4.541350 2.881040 2.825320 -8.820680 -21.136499 10.894400 -14.057700 2.367572 6.244708 -0.658664 -60.958801 -12.827400 33.714100 -58.484299 -12.731400 29.982100 -14.166300 -15.124300 -8.642350 -5.963918 -2.748737 3.873445 59.724098 0.833475 24.261801 55.084301 -20.661600 59.434601 8.222830 -11.215500 -35.447899 -17.983385 -0.196293 13.695276 19.673187 -1.263985 -10.790616 -0.803892 5.198289 0.443741 -21.343809 -13.756059 -12.290029 29.011129 -4.403029 18.355200 -6.029329 -2.602629 1.698638 
-1.658831 43.170998 -3.563088 -1.297570 3.557180 -8.837300 0.000000 0.000000 0.000000 22.635500 -1.150060 -4.313120 1.257500 3.829220 -8.569040 -21.849100 11.530200 -14.247000 2.962566 7.158488 -1.122226 -61.082500 -13.607700 35.021702 -58.201000 -13.206000 29.756300 -12.461200 -14.530400 -8.463790 -5.007178 -3.064455 4.107023 62.761200 0.947311 26.948799 50.069599 -21.615400 57.270599 8.667050 -10.779700 -35.442799 -19.514956 1.589274 13.810599 19.645554 -0.791831 -11.788238 -0.433695 4.299778 -0.818696 -20.488085 -12.294782 -13.886301 26.615011 -2.585670 15.826639 -7.087523 -2.141326 1.364438 
-2.634713 43.169617 -3.645679 -0.173919 2.234700 -7.330500 0.000000 0.000000 0.000000 22.635500 -1.926500 -4.122960 -0.120508 5.898530 -7.859480 -21.987600 11.317900 -13.615000 3.360831 8.900927 -1.547269 -61.506802 -13.890200 36.092098 -58.122002 -13.412300 30.455000 -11.145700 -14.258000 -8.225960 -4.211828 -2.103683 3.878421 64.607498 0.482705 28.676901 46.090698 -22.005800 55.976398 8.275350 -10.434000 -35.042999 -20.857950 4.296374 14.019590 19.880358 -0.345801 -12.781153 -0.312387 3.142101 -2.040275 -19.839106 -10.074094 -15.187909 25.189775 -1.033572 14.038664 -7.358439 -1.842645 1.196400 
-3.657406 43.187336 -3.664025 0.736612 0.219731 -5.689900 0.000000 0.000000 0.000000 22.635500 -3.155300 -3.993080 -1.015080 9.422890 -6.605290 -21.674500 10.150800 -12.056300 3.383629 11.923136 -1.560251 -62.393799 -13.712700 36.770199 -57.984901 -13.410100 31.657301 -10.281600 -14.082900 -8.182040 -3.818646 0.701564 3.230416 65.063797 -0.449237 29.086000 43.413101 -22.145000 55.961102 6.916950 -10.654800 -34.122799 -22.278189 7.836963 14.522295 20.954657 0.174956 -13.731599 -0.646901 2.300461 -2.765998 -19.172991 -7.192265 -16.477486 24.193722 0.362280 12.392593 -7.294425 -1.406810 1.106164 
-4.696198 43.151222 -3.581715 1.341520 -2.221010 -3.780490 0.000000 0.000000 0.000000 22.635500 -4.802880 -4.146450 -1.085410 14.084200 -5.021910 -21.242100 8.376370 -9.696480 2.856734 16.133316 -0.883585 -63.607498 -13.414500 37.246700 -57.565701 -13.313300 32.801498 -9.494390 -13.903200 -8.358980 -4.040105 5.201956 2.436592 64.330299 -1.542500 27.997900 41.883900 -22.394300 56.965401 5.120450 -11.529100 -32.995098 -24.027338 11.791816 15.201150 23.416468 1.076208 -14.322403 -1.531163 2.194687 -2.829723 -18.324482 -3.766502 -17.482931 23.343319 1.602052 10.379807 -7.399323 -1.045782 0.819719 
-5.698221 43.037048 -3.384011 1.439720 -4.793970 -1.463000 0.000000 0.000000 0.000000 22.635500 -6.519220 -4.754880 -0.155336 19.084499 -3.335200 -20.922800 6.495820 -6.807020 1.599615 20.920286 0.463159 -64.631699 -13.410500 37.782001 -56.775200 -13.237600 33.607101 -8.303430 -13.951400 -8.479540 -4.961947 10.848835 1.873499 62.776901 -2.332510 25.384800 41.380001 -22.974701 58.009399 3.503880 -12.472700 -31.990101 -25.945902 15.643099 15.724440 27.420874 2.661501 -14.460260 -2.934540 2.843588 -2.677058 -17.343090 -0.107541 -17.689276 22.973890 2.655074 7.985188 -7.936488 -1.225500 0.132653 
-6.602129 42.829697 -3.092942 0.739256 -7.210170 1.209190 0.000000 0.000000 0.000000 22.635500 -8.005440 -5.829660 1.798360 23.538500 -1.678540 -20.725500 4.880100 -3.794310 -0.367324 25.321812 2.410402 -64.838699 -13.885800 38.424400 -55.789299 -13.179900 34.235100 -6.727670 -14.421000 -8.335800 -6.474576 16.676296 1.803875 60.884602 -2.450470 21.275900 42.125801 -23.898100 58.383400 2.255400 -13.133500 -31.199400 -27.554699 18.921196 15.530184 32.367779 4.821145 -13.976856 -4.777661 3.692668 -3.366708 -16.349558 3.379637 -17.188717 23.633648 3.407421 5.524086 -9.005317 -2.044739 -0.965478 
-7.352009 42.558994 -2.761207 -0.831124 -9.158350 3.886730 0.000000 0.000000 0.000000 22.635500 -9.041490 -7.117400 4.628720 26.713200 -0.062290 -20.680799 3.560160 -1.104000 -2.764060 28.380302 4.771453 -63.977600 -14.733700 38.754601 -54.926998 -13.019000 35.000401 -5.206250 -15.232300 -7.950140 -8.403201 21.720142 2.365695 58.921501 -1.620920 15.818500 44.299599 -24.854700 58.604000 1.230990 -13.836200 -30.499201 -28.348625 21.375771 14.346173 37.298595 7.144296 -12.870139 -6.811891 4.158034 -5.145744 -15.451177 6.278439 -16.738518 25.698889 3.864861 3.858177 -10.564198 -3.288082 -2.386612 
